<svg xmlns="http://www.w3.org/2000/svg" width="243" height="48" viewBox="0 0 243 48" fill="none">
  <defs>
    <filter id="glow" x="-50%" y="-50%" width="200%" height="200%">
      <feGaussianBlur stdDeviation="1.2" result="coloredBlur"/>
      <feMerge>
        <feMergeNode in="coloredBlur"/>
        <feMergeNode in="SourceGraphic"/>
      </feMerge>
    </filter>
  </defs>

  <text x="9" y="34" font-family="Inter, system-ui, -apple-system, Segoe UI, Roboto, Arial, sans-serif" font-size="29" font-weight="700" fill="#111111">Find</text>
  <text x="80" y="34" font-family="Inter, system-ui, -apple-system, Segoe UI, Roboto, Arial, sans-serif" font-size="29" font-weight="700" fill="#111111">All</text>
  <text x="120" y="34" font-family="Inter, system-ui, -apple-system, Segoe UI, Roboto, Arial, sans-serif" font-size="29" font-weight="700" fill="#111111">Easy</text>

  <g transform="translate(200 7) scale(0.5312)" stroke="#D4AA37" stroke-width="3.8" stroke-linecap="round" stroke-linejoin="round" filter="url(#glow)">
    <path d="M12 42 L12 32 L20 24 L30 28 L28 46"/>
    <path d="M34 54 L34 36 L38 24 L50 14 L60 12"/>
    <path d="M16 58 L26 62 L38 62 L48 58"/>
    <path d="M28 48 L34 46"/>
    <path d="M56 2 L56 18"/>
    <path d="M48 10 L64 10"/>
    <path d="M56 6 L60 10 L56 14 L52 10 Z" fill="#D4AA37" stroke="none"/>
  </g>
</svg>